<svg xmlns="http://www.w3.org/2000/svg" viewBox="0 0 100 100" width="200" height="200">
  <defs>
    <linearGradient id="bg" x1="0%" y1="0%" x2="100%" y2="100%">
      <stop offset="0%" style="stop-color:#00A4EF" />
      <stop offset="100%" style="stop-color:#7FBA00" />
    </linearGradient>
    <linearGradient id="shine" x1="0%" y1="0%" x2="0%" y2="100%">
      <stop offset="0%" style="stop-color:rgba(255,255,255,0.3)" />
      <stop offset="100%" style="stop-color:rgba(255,255,255,0)" />
    </linearGradient>
  </defs>
  <circle cx="50" cy="50" r="50" fill="url(#bg)" />
  <circle cx="50" cy="50" r="48" fill="none" stroke="rgba(255,255,255,0.15)" stroke-width="1" />
  <path d="M50,15 L50,85 M30,30 C30,30 50,20 70,30 C70,30 70,50 50,55 C50,55 30,50 30,30Z M30,50 C30,50 50,45 70,50 C70,50 70,70 50,80 C50,80 30,70 30,50Z" fill="none" stroke="rgba(255,255,255,0.85)" stroke-width="2.5" stroke-linecap="round" stroke-linejoin="round" />
  <text x="50" y="88" text-anchor="middle" fill="rgba(255,255,255,0.9)" font-family="Arial,sans-serif" font-size="8" font-weight="700" letter-spacing="1">PHI</text>
  <text x="50" y="96" text-anchor="middle" fill="rgba(255,255,255,0.5)" font-family="Arial,sans-serif" font-size="5">Microsoft</text>
  <ellipse cx="50" cy="30" rx="35" ry="25" fill="url(#shine)" opacity="0.15" />
</svg>