<svg xmlns="http://www.w3.org/2000/svg" viewBox="0 0 100 100" width="200" height="200">
  <defs>
    <linearGradient id="bg" x1="0%" y1="0%" x2="100%" y2="100%">
      <stop offset="0%" style="stop-color:#F9A825" />
      <stop offset="100%" style="stop-color:#FFD54F" />
    </linearGradient>
    <linearGradient id="shine" x1="0%" y1="0%" x2="0%" y2="100%">
      <stop offset="0%" style="stop-color:rgba(255,255,255,0.3)" />
      <stop offset="100%" style="stop-color:rgba(255,255,255,0)" />
    </linearGradient>
  </defs>
  <circle cx="50" cy="50" r="50" fill="url(#bg)" />
  <circle cx="50" cy="50" r="48" fill="none" stroke="rgba(255,255,255,0.15)" stroke-width="1" />
  <path d="M50,25 C53,25 56,28 56,32 L56,48 C56,52 58,54 60,55 L64,57 C65,58 65,59 64,60 L56,63 C53,64 50,67 50,70 C50,67 47,64 44,63 L36,60 C35,59 35,58 36,57 L40,55 C42,54 44,52 44,48 L44,32 C44,28 47,25 50,25Z" fill="none" stroke="rgba(255,255,255,0.85)" stroke-width="2.5" stroke-linecap="round" stroke-linejoin="round" />
  <text x="50" y="88" text-anchor="middle" fill="rgba(255,255,255,0.9)" font-family="Arial,sans-serif" font-size="8" font-weight="700" letter-spacing="1">TINY</text>
  <text x="50" y="96" text-anchor="middle" fill="rgba(255,255,255,0.5)" font-family="Arial,sans-serif" font-size="5">TinyLlama</text>
  <ellipse cx="50" cy="30" rx="35" ry="25" fill="url(#shine)" opacity="0.15" />
</svg>