<svg xmlns="http://www.w3.org/2000/svg" viewBox="0 0 100 100" width="200" height="200">
  <defs>
    <linearGradient id="bg" x1="0%" y1="0%" x2="100%" y2="100%">
      <stop offset="0%" style="stop-color:#AA00FF" />
      <stop offset="100%" style="stop-color:#CE93D8" />
    </linearGradient>
    <linearGradient id="shine" x1="0%" y1="0%" x2="0%" y2="100%">
      <stop offset="0%" style="stop-color:rgba(255,255,255,0.3)" />
      <stop offset="100%" style="stop-color:rgba(255,255,255,0)" />
    </linearGradient>
  </defs>
  <circle cx="50" cy="50" r="50" fill="url(#bg)" />
  <circle cx="50" cy="50" r="48" fill="none" stroke="rgba(255,255,255,0.15)" stroke-width="1" />
  <path d="M35,35 C35,35 50,30 65,35 L65,55 C65,65 50,75 50,75 C50,75 35,65 35,55Z M42,45 A3,3 0 1,1 48,45 A3,3 0 1,1 42,45Z M52,45 A3,3 0 1,1 58,45 A3,3 0 1,1 52,45Z" fill="none" stroke="rgba(255,255,255,0.85)" stroke-width="2.5" stroke-linecap="round" stroke-linejoin="round" />
  <text x="50" y="88" text-anchor="middle" fill="rgba(255,255,255,0.9)" font-family="Arial,sans-serif" font-size="8" font-weight="700" letter-spacing="1">VICUNA</text>
  <text x="50" y="96" text-anchor="middle" fill="rgba(255,255,255,0.5)" font-family="Arial,sans-serif" font-size="5">LMSYS</text>
  <ellipse cx="50" cy="30" rx="35" ry="25" fill="url(#shine)" opacity="0.15" />
</svg>